#!OML:ASF Y:\EmotionMaleHayes\Project 1\Capture day 1\Session 1\Male1.ASF
:FULLY-SPECIFIED
:DEGREES
940
root 45.7371 16.9715 -0.822203 950.284 101.122 958.464
lowerback 5.81046 2.2281 -13.3369
upperback -0.328682 2.03886 -2.72999
thorax -3.99178 1.29826 4.38434
lowerneck -12.6703 14.0453 16.5866
upperneck 18.6131 17.8259 -7.4587
head 10.1841 8.8197 -2.65156
rclavicle 5.66536e-015 -1.35174e-014
rhumerus -44.6632 0.651707 -86.5831
rradius 35.6128
rwrist 0.658233
rhand -6.04531 -33.4958
rfingers 7.12502
rthumb 19.7888 -62.5084
lclavicle 5.66536e-015 -1.35174e-014
lhumerus -39.0577 -25.2468 101.442
lradius 34.3882
lwrist 0.982814
lhand -16.0881 -24.6831
lfingers 7.12502
lthumb 10.1152 5.05373
rfemur 0.601889 -3.36458 0.688979
rtibia 26.3829
rfoot -19.4079 -1.64239
rtoes -0.771228
lfemur 18.2064 5.12455 -29.6902
ltibia 1.29716
lfoot -12.6125 6.06421
ltoes 6.1984
941
root 45.7586 16.9795 -0.804731 952.636 101.281 960.577
lowerback 5.71842 2.19973 -13.628
upperback -0.514018 1.97944 -2.87121
thorax -4.13352 1.29184 4.39782
lowerneck -12.6574 13.9686 16.5422
upperneck 18.7268 17.7305 -7.39562
head 10.1997 8.78227 -2.64089
rclavicle 1.56543e-014 -2.38542e-015
rhumerus -44.7769 0.586842 -86.6159
rradius 35.4948
rwrist 0.793839
rhand -5.91199 -33.474
rfingers 7.12502
rthumb 19.917 -62.4734
lclavicle 1.56543e-014 -2.38542e-015
lhumerus -39.6256 -25.1173 101.751
lradius 34.0792
lwrist 1.14701
lhand -15.937 -24.5792
lfingers 7.12502
lthumb 10.2609 5.15056
rfemur 0.813267 -3.73109 0.1997
rtibia 25.7184
rfoot -19.2603 -1.81786
rtoes -0.640278
lfemur 17.9232 5.06013 -30.1226
ltibia 1.3616
lfoot -12.4395 5.92528
ltoes 4.50866
942
root 45.7904 16.9713 -0.770665 944.608 99.8312 952.69
lowerback 5.43693 2.258 -11.5932
upperback -0.159085 2.2614 -2.31207
thorax -3.58375 1.34182 3.86457
lowerneck -12.9236 14.0002 16.4326
upperneck 18.5844 17.7421 -7.45827
head 10.1932 8.76106 -2.63142
rclavicle -1.88845e-015 -9.14409e-015
rhumerus -44.1871 0.619488 -86.6255
rradius 35.1805
rwrist 0.836091
rhand -5.90518 -33.2751
rfingers 7.12502
rthumb 19.9235 -62.2738
lclavicle -1.88845e-015 -9.14409e-015
lhumerus -39.4391 -25.0116 101.785
lradius 33.5925
lwrist 1.13762
lhand -15.8138 -24.4362
lfingers 7.12502
lthumb 10.3798 5.2876
rfemur 1.51083 -2.56394 3.1137
rtibia 24.8053
rfoot -19.4135 -2.42622
rtoes 1.22238
lfemur 18.6741 4.51999 -27.6496
ltibia 0.877125
lfoot -12.3784 6.41896
ltoes 3.15738
943
root 45.8369 16.9749 -0.762054 950.613 100.413 958.759
lowerback 5.58757 2.15796 -12.5574
upperback -0.421972 2.02235 -2.68027
thorax -3.93403 1.2727 4.01747
lowerneck -12.6523 13.996 16.5496
upperneck 18.8327 17.7659 -7.32265
head 10.2345 8.80763 -2.60842
rclavicle -1.08338e-014 1.55052e-014
rhumerus -44.6363 0.919177 -86.8362
rradius 35.0099
rwrist 0.770454
rhand -5.88723 -33.3362
rfingers 7.12502
rthumb 19.9408 -62.3331
lclavicle -1.08338e-014 1.55052e-014
lhumerus -40.3002 -24.5484 102.026
lradius 33.1455
lwrist 0.94084
lhand -15.8308 -24.3514
lfingers 7.12502
lthumb 10.3634 5.37321
rfemur 2.34432 -3.48416 1.37325
rtibia 23.9488
rfoot -19.2903 -1.81862
rtoes -0.307235
lfemur 18.8003 4.5989 -29.0477
ltibia 0.909366
lfoot -12.5723 6.05238
ltoes 4.48693
944
root 45.8438 16.9805 -0.734953 949.2 99.9792 957.075
lowerback 5.44167 2.12611 -12.0921
upperback -0.478189 2.02589 -2.54755
thorax -3.89904 1.26357 3.9056
lowerneck -12.7747 14.0532 16.5143
upperneck 18.8899 17.825 -7.27323
head 10.2759 8.8323 -2.56653
rclavicle -3.926e-015 -1.63003e-014
rhumerus -44.5257 0.839263 -86.8185
rradius 35.0022
rwrist 0.989222
rhand -5.79256 -33.4325
rfingers 7.12502
rthumb 20.0318 -62.4199
lclavicle -3.926e-015 -1.63003e-014
lhumerus -40.4716 -24.3017 102.023
lradius 32.7612
lwrist 1.09933
lhand -15.6485 -24.1338
lfingers 7.12502
lthumb 10.5392 5.58193
rfemur 2.31794 -3.2518 2.25979
rtibia 23.6537
rfoot -19.4557 -2.31998
rtoes -1.80894
lfemur 18.5388 4.17467 -28.4302
ltibia 1.03945
lfoot -12.9733 6.30079
ltoes 6.06538
945
root 45.8668 16.9834 -0.714055 949.438 99.8177 957.227
lowerback 5.33701 2.1351 -11.9576
upperback -0.484413 2.06159 -2.51347
thorax -3.84807 1.27581 3.8675
lowerneck -12.9907 13.9819 16.3023
upperneck 19.0459 17.7208 -7.16178
head 10.3253 8.77571 -2.50342
rclavicle -5.81445e-015 -6.12257e-014
rhumerus -44.4882 0.583716 -86.6435
rradius 35.0082
rwrist 1.24811
rhand -5.88988 -33.2268
rfingers 7.12502
rthumb 19.9382 -62.2239
lclavicle -5.81445e-015 -6.12257e-014
lhumerus -40.6728 -23.935 102.08
lradius 32.4155
lwrist 1.25912
lhand -15.3781 -23.9136
lfingers 7.12502
lthumb 10.8001 5.7887
rfemur 2.64212 -3.22967 2.47833
rtibia 23.2425
rfoot -19.4947 -2.46197
rtoes -1.31869
lfemur 18.5831 3.87885 -28.3248
ltibia 1.00284
lfoot -13.1813 6.28326
ltoes 6.38807
946
root 45.9026 16.9878 -0.697921 949.66 99.7129 957.438
lowerback 5.17611 2.16225 -11.7743
upperback -0.465209 2.13478 -2.51931
thorax -3.74029 1.30203 3.75955
lowerneck -13.0749 13.8779 16.2009
upperneck 19.1213 17.5983 -7.19189
head 10.3455 8.70883 -2.51667
rclavicle -1.75924e-014 -4.8901e-014
rhumerus -44.4134 0.64759 -86.649
rradius 34.7926
rwrist 1.24121
rhand -6.09895 -33.0259
rfingers 7.12502
rthumb 19.7372 -62.0438
lclavicle -1.75924e-014 -4.8901e-014
lhumerus -40.9051 -23.446 102.066
lradius 32.06
lwrist 1.12967
lhand -15.0631 -23.6507
lfingers 7.12502
lthumb 11.1039 6.03555
rfemur 3.20245 -3.26215 2.55671
rtibia 22.5781
rfoot -19.3631 -2.52295
rtoes -0.777122
lfemur 18.8465 3.59631 -28.3518
ltibia 0.742703
lfoot -13.0647 6.40377
ltoes 6.14581
947
root 45.911 16.9959 -0.666197 948.343 99.3292 955.893
lowerback 5.14116 2.18668 -11.3958
upperback -0.589663 2.18305 -2.40609
thorax -3.84919 1.32654 3.66377
lowerneck -12.9392 13.8241 16.3118
upperneck 19.03 17.5554 -7.35614
head 10.3105 8.68555 -2.606
rclavicle 9.44227e-015 -4.29375e-014
rhumerus -44.3599 0.740183 -86.7316
rradius 34.5824
rwrist 1.27555
rhand -6.18139 -33.035
rfingers 7.12502
rthumb 19.658 -62.0611
lclavicle 9.44227e-015 -4.29375e-014
lhumerus -41.1253 -23.0504 101.994
lradius 31.7439
lwrist 1.24984
lhand -14.4996 -23.0246
lfingers 7.12502
lthumb 11.6474 6.63165
rfemur 3.40747 -2.77502 3.42626
rtibia 21.8526
rfoot -19.2737 -3.20389
rtoes -2.06878
lfemur 18.6487 3.20086 -27.7913
ltibia 0.775879
lfoot -13.0033 6.70543
ltoes 5.62997
948
root 45.9297 17.0047 -0.644199 947.514 99.0361 954.838
lowerback 4.96496 2.16594 -11.0865
upperback -0.688986 2.19016 -2.30604
thorax -3.84698 1.32605 3.60166
lowerneck -12.8513 13.8037 16.3835
upperneck 19.0199 17.557 -7.47208
head 10.31 8.6837 -2.66052
rclavicle 1.91827e-014 7.95139e-016
rhumerus -44.2619 0.684817 -86.6511
rradius 34.3737
rwrist 1.54892
rhand -6.04626 -33.0503
rfingers 7.12502
rthumb 19.7879 -62.0631
lclavicle 1.91827e-014 7.95139e-016
lhumerus -41.3028 -22.4222 101.865
lradius 31.3523
lwrist 1.26012
lhand -14.3926 -22.5876
lfingers 7.12502
lthumb 11.7505 7.06285
rfemur 3.42806 -2.73256 3.93746
rtibia 21.5558
rfoot -19.4247 -3.34706
rtoes -3.31855
lfemur 18.5329 2.85433 -27.47
ltibia 0.735308
lfoot -13.2504 6.8806
ltoes 5.64826
949
root 45.9576 17.0089 -0.628319 950.762 99.4267 958.051
lowerback 4.97699 2.194 -11.5816
upperback -0.811291 2.1866 -2.54053
thorax -3.99426 1.34757 3.62362
lowerneck -12.8166 13.6903 16.3191
upperneck 19.1379 17.4111 -7.37755
head 10.312 8.62627 -2.64725
rclavicle 4.47266e-016 -2.82274e-014
rhumerus -44.3278 0.434715 -86.5649
rradius 34.1838
rwrist 1.771
rhand -6.0915 -32.9339
rfingers 7.12502
rthumb 19.7444 -61.9511
lclavicle 4.47266e-016 -2.82274e-014
lhumerus -41.6959 -21.7108 101.642
lradius 30.8557
lwrist 1.01427
lhand -15.0011 -22.7451
lfingers 7.12502
lthumb 11.1637 6.93794
rfemur 3.72965 -3.04245 3.07324
rtibia 21.2052
rfoot -19.5022 -3.13264
rtoes -4.09221
lfemur 18.5695 2.64365 -28.3288
ltibia 0.633518
lfoot -13.4054 7.00013
ltoes 5.80339
